HIERARCHY
ROOT Hips
{
	OFFSET -14.64140 90.27770 -84.91600
	CHANNELS 6 Xposition Yposition Zposition Zrotation Xrotation Yrotation
	JOINT Spine
	{
		OFFSET 0.00000 13.20850 -1.60436
		CHANNELS 3 Zrotation Xrotation Yrotation
		JOINT Spine1
		{
			OFFSET 0.00000 8.61716 0.00000
			CHANNELS 3 Zrotation Xrotation Yrotation
			JOINT Spine2
			{
				OFFSET 0.00000 8.61717 0.00000
				CHANNELS 3 Zrotation Xrotation Yrotation
				JOINT Spine3
				{
					OFFSET 0.00000 8.61717 0.00000
					CHANNELS 3 Zrotation Xrotation Yrotation
					JOINT Neck
					{
						OFFSET 0.00000 11.07920 1.10792
						CHANNELS 3 Zrotation Xrotation Yrotation
						JOINT Neck1
						{
							OFFSET 0.00000 7.08032 0.00000
							CHANNELS 3 Zrotation Xrotation Yrotation
							JOINT Head
							{
								OFFSET 0.00000 7.08031 0.00000
								CHANNELS 3 Zrotation Xrotation Yrotation
								End site
								{
									OFFSET 0.00000 0.00000 0.00000
								}
							}
						}
					}
					JOINT RightShoulder
					{
						OFFSET -0.01000 7.91373 5.19711
						CHANNELS 3 Zrotation Xrotation Yrotation
						JOINT RightArm
						{
							OFFSET -18.41580 0.00000 0.00000
							CHANNELS 3 Zrotation Xrotation Yrotation
							JOINT RightForeArm
							{
								OFFSET -29.11090 0.00000 0.00000
								CHANNELS 3 Zrotation Xrotation Yrotation
								JOINT RightHand
								{
									OFFSET -24.65040 0.00000 0.00000
									CHANNELS 3 Zrotation Xrotation Yrotation
									JOINT RightHandThumb1
									{
										OFFSET -5.35114 -0.85590 3.97906
										CHANNELS 3 Zrotation Xrotation Yrotation
										JOINT RightHandThumb2
										{
											OFFSET -4.52789 0.00000 0.00000
											CHANNELS 3 Zrotation Xrotation Yrotation
											JOINT RightHandThumb3
											{
												OFFSET -2.46976 0.00000 0.00000
												CHANNELS 3 Zrotation Xrotation Yrotation
												End site
												{
													OFFSET 0.00000 0.00000 0.00000
												}
											}
										}
									}
									JOINT RightHandIndex1
									{
										OFFSET -14.26970 0.00000 2.88139
										CHANNELS 3 Zrotation Xrotation Yrotation
										JOINT RightHandIndex2
										{
											OFFSET -5.48836 0.00000 0.00000
											CHANNELS 3 Zrotation Xrotation Yrotation
											JOINT RightHandIndex3
											{
												OFFSET -3.01859 0.00000 0.00000
												CHANNELS 3 Zrotation Xrotation Yrotation
												End site
												{
													OFFSET 0.00000 0.00000 0.00000
												}
											}
										}
									}
									JOINT RightHandMiddle1
									{
										OFFSET -14.26970 0.00000 -0.09147
										CHANNELS 3 Zrotation Xrotation Yrotation
										JOINT RightHandMiddle2
										{
											OFFSET -6.17441 0.00000 0.00000
											CHANNELS 3 Zrotation Xrotation Yrotation
											JOINT RightHandMiddle3
											{
												OFFSET -3.56743 0.00000 0.00000
												CHANNELS 3 Zrotation Xrotation Yrotation
												End site
												{
													OFFSET 0.00000 0.00000 0.00000
												}
											}
										}
									}
									JOINT RightHandRing1
									{
										OFFSET -12.69180 0.00000 -3.06433
										CHANNELS 3 Zrotation Xrotation Yrotation
										JOINT RightHandRing2
										{
											OFFSET -5.62556 0.00000 0.00000
											CHANNELS 3 Zrotation Xrotation Yrotation
											JOINT RightHandRing3
											{
												OFFSET -3.56744 0.00000 0.00000
												CHANNELS 3 Zrotation Xrotation Yrotation
												End site
												{
													OFFSET 0.00000 0.00000 0.00000
												}
											}
										}
									}
									JOINT RightHandPinky1
									{
										OFFSET -11.11390 0.00000 -6.03719
										CHANNELS 3 Zrotation Xrotation Yrotation
										JOINT RightHandPinky2
										{
											OFFSET -4.52789 0.00000 0.00000
											CHANNELS 3 Zrotation Xrotation Yrotation
											JOINT RightHandPinky3
											{
												OFFSET -2.46976 0.00000 0.00000
												CHANNELS 3 Zrotation Xrotation Yrotation
												End site
												{
													OFFSET 0.00000 0.00000 0.00000
												}
											}
										}
									}
								}
							}
						}
					}
					JOINT LeftShoulder
					{
						OFFSET 0.01000 7.91373 5.19711
						CHANNELS 3 Zrotation Xrotation Yrotation
						JOINT LeftArm
						{
							OFFSET 18.41580 0.00000 0.00000
							CHANNELS 3 Zrotation Xrotation Yrotation
							JOINT LeftForeArm
							{
								OFFSET 29.11090 0.00000 0.00000
								CHANNELS 3 Zrotation Xrotation Yrotation
								JOINT LeftHand
								{
									OFFSET 24.65040 0.00000 0.00000
									CHANNELS 3 Zrotation Xrotation Yrotation
									JOINT LeftHandThumb1
									{
										OFFSET 5.35114 -0.85590 3.97906
										CHANNELS 3 Zrotation Xrotation Yrotation
										JOINT LeftHandThumb2
										{
											OFFSET 4.52789 0.00000 0.00000
											CHANNELS 3 Zrotation Xrotation Yrotation
											JOINT LeftHandThumb3
											{
												OFFSET 2.46977 0.00000 0.00000
												CHANNELS 3 Zrotation Xrotation Yrotation
												End site
												{
													OFFSET 0.00000 0.00000 0.00000
												}
											}
										}
									}
									JOINT LeftHandIndex1
									{
										OFFSET 14.26970 0.00000 2.88139
										CHANNELS 3 Zrotation Xrotation Yrotation
										JOINT LeftHandIndex2
										{
											OFFSET 5.48836 0.00000 0.00000
											CHANNELS 3 Zrotation Xrotation Yrotation
											JOINT LeftHandIndex3
											{
												OFFSET 3.01859 0.00000 0.00000
												CHANNELS 3 Zrotation Xrotation Yrotation
												End site
												{
													OFFSET 0.00000 0.00000 0.00000
												}
											}
										}
									}
									JOINT LeftHandMiddle1
									{
										OFFSET 14.26970 0.00000 -0.09147
										CHANNELS 3 Zrotation Xrotation Yrotation
										JOINT LeftHandMiddle2
										{
											OFFSET 6.17440 0.00000 0.00000
											CHANNELS 3 Zrotation Xrotation Yrotation
											JOINT LeftHandMiddle3
											{
												OFFSET 3.56744 0.00000 0.00000
												CHANNELS 3 Zrotation Xrotation Yrotation
												End site
												{
													OFFSET 0.00000 0.00000 0.00000
												}
											}
										}
									}
									JOINT LeftHandRing1
									{
										OFFSET 12.69180 0.00000 -3.06433
										CHANNELS 3 Zrotation Xrotation Yrotation
										JOINT LeftHandRing2
										{
											OFFSET 5.62556 0.00000 0.00000
											CHANNELS 3 Zrotation Xrotation Yrotation
											JOINT LeftHandRing3
											{
												OFFSET 3.56744 0.00000 0.00000
												CHANNELS 3 Zrotation Xrotation Yrotation
												End site
												{
													OFFSET 0.00000 0.00000 0.00000
												}
											}
										}
									}
									JOINT LeftHandPinky1
									{
										OFFSET 11.11390 0.00000 -6.03719
										CHANNELS 3 Zrotation Xrotation Yrotation
										JOINT LeftHandPinky2
										{
											OFFSET 4.52789 0.00000 0.00000
											CHANNELS 3 Zrotation Xrotation Yrotation
											JOINT LeftHandPinky3
											{
												OFFSET 2.46976 0.00000 0.00000
												CHANNELS 3 Zrotation Xrotation Yrotation
												End site
												{
													OFFSET 0.00000 0.00000 0.00000
												}
											}
										}
									}
								}
							}
						}
					}
					JOINT pCube4
					{
						OFFSET 0.00000 10.91090 1.10792
						CHANNELS 3 Zrotation Xrotation Yrotation
						End site
						{
							OFFSET 0.00000 0.00000 0.00000
						}
					}
				}
			}
		}
	}
	JOINT RightUpLeg
	{
		OFFSET -9.98441 0.00000 0.00000
		CHANNELS 3 Zrotation Xrotation Yrotation
		JOINT RightLeg
		{
			OFFSET 0.00000 -42.11790 0.00000
			CHANNELS 3 Zrotation Xrotation Yrotation
			JOINT RightFoot
			{
				OFFSET 0.00000 -45.00020 -0.00001
				CHANNELS 3 Zrotation Xrotation Yrotation
				JOINT RightForeFoot
				{
					OFFSET 0.00000 -3.74820 0.00000
					CHANNELS 3 Zrotation Xrotation Yrotation
					JOINT RightToeBase
					{
						OFFSET 0.00000 0.06325 14.43120
						CHANNELS 3 Zrotation Xrotation Yrotation
						End site
						{
							OFFSET 0.00000 0.00000 0.00000
						}
					}
				}
			}
		}
	}
	JOINT LeftUpLeg
	{
		OFFSET 9.98441 0.00000 0.00000
		CHANNELS 3 Zrotation Xrotation Yrotation
		JOINT LeftLeg
		{
			OFFSET 0.00000 -42.11800 0.00000
			CHANNELS 3 Zrotation Xrotation Yrotation
			JOINT LeftFoot
			{
				OFFSET 0.00000 -45.00070 0.00000
				CHANNELS 3 Zrotation Xrotation Yrotation
				JOINT LeftForeFoot
				{
					OFFSET 0.00000 -3.74824 0.00000
					CHANNELS 3 Zrotation Xrotation Yrotation
					JOINT LeftToeBase
					{
						OFFSET 0.00000 0.06325 14.43110
						CHANNELS 3 Zrotation Xrotation Yrotation
						End site
						{
							OFFSET 0.00000 0.00000 0.00000
						}
					}
				}
			}
		}
	}
}
MOTION
Frames: 4
Frame Time: 0.050000
-0.009480746124244705 0.030456663992136507 0.040093774325328006 -0.024484113827991597 0.02937105195403702 0.03125468714587525 -0.6486699615722552 2.5973134165972445 -1.2593870234352187 -0.9287203831483299 3.695394909055211 0.38157982937670176 -1.1264341165096903 -1.1076042727478235 -0.41408525638478755 0.510101338636761 0.16779551774206006 -0.6819419890943691 0.9327518871014475 11.293927228727688 -3.371473868818023 0.12759328211389587 -1.6165978555578986 -9.254392567918094 1.3366719461389565 -18.217465858894077 -0.7983587250134088 -6.817332963128403 2.5041890913712272 -14.908143990279848 78.68807279050498 -1.5378575584484617 15.212589009844434 35.04476657676026 -1.0198413656673426 97.62757356277511 3.411645627684231 -0.011465325588294713 -1.662742036638767 4.55477300005885 -0.16166498507940494 -1.5812097486341732 0.024737520781766078 0.0429346879645147 -56.22530457302786 0.017877175931113737 -0.03933092525629541 -56.241248846197884 -38.7218971896763 0.027096134521750765 -0.02439401528830059 -0.04583731148594577 -0.03218343321672277 -0.033427821972823485 -0.022671592659966846 -0.02306675777824531 0.0016245611218533907 -36.68060089002518 -0.02270248832781389 -0.04667831969364636 0.04157893678057886 -0.005275162614031754 0.0007627867808160873 -0.04228681003626939 -0.024102231826387446 -0.023070158947902916 -19.730968591050313 -0.0004300473190583492 -0.01732023494634831 -0.0063355932323765525 -0.021071493729344762 -0.03395931114610446 -0.047076147929245415 -0.0026313661123334863 -0.01823370791153492 24.066539280393076 0.044542893765076676 0.036123800285147334 28.88179322632098 0.00691177460522462 -0.023225193737134806 28.896892934005265 -0.02760974468316469 -0.04567539956021176 5.312449071131626 1.3987135242271034 11.912561462066789 -71.42290166019151 28.13283956758137 -7.390265243087381 -18.10297497984684 -3.3754747519661623 -85.08887930045157 -9.195110075310646 -4.606731032566811 3.508912144265892 -0.4754813740372592 0.07728180176868177 -8.146566672601553 0.013394106993976454 0.0002995813686964071 44.54605649819442 0.008616642090249458 -0.01591180914888656 44.59070267528757 12.432876899474094 0.0038525071215706787 0.024518673598040233 -0.0035442566494959626 0.02435571335942579 -0.03244692386930614 0.00840413853928625 -0.018136756854253904 -0.02280253061742522 11.121172167132972 -0.03594661068064027 0.04042029492158817 -0.020210348038180642 -0.04173334155366265 -0.006070796235266721 0.03468302524524528 -0.020064267075953716 -0.009711380311592651 4.786323922159811 -0.03440265750714646 -0.03282821842981596 -0.039416546823090155 -0.03050168176878526 -0.046751018189202936 -0.019304595928824206 0.034356452241845865 0.013801875280171204 -5.640281122976088 -0.03500348573896051 0.03287080701105669 -6.709477096660594 0.0031632232790026003 0.04833526367341882 -6.681296108359746 -0.012766014706376134 0.030128243862268193 -0.007249798691820127 -0.041327341939974636 0.02272028594470415 8.045330396774046 3.5259137563654477 -19.259859282447103 0.035882975959806135 10.371699660066367 0.02689044543379234 -5.594846719148187 -15.62547057524826 3.220179283656642 0.008819182790981298 -0.03313099931384479 -0.04460854104927135 0.003652656992572451 4.717929260047776 0.019915248112707735 12.414340621516219 -8.20775389231992 6.929804034726221 -0.008511181128904182 46.37840967556381 -0.007952478172241964 -4.314927728305656 -14.774303024681467 -3.829975555476892 0.03506441507463968 0.002738086742512513 0.02043379559422045 -0.004142940349095275 -10.771220294032124 -0.009153477542063904 
-0.03173397050390799 0.039404565085698146 -0.002273283248719065 -0.04084245370929552 0.03487912447977785 -0.036365464128767754 -0.9301200800962619 2.483316209294257 -1.2563420100634584 -0.9202476268207741 3.717767641939611 0.389788681500837 -1.1718729316932002 -1.1672958596458982 -0.4023200461127814 0.42798237267312966 0.1281515395267132 -0.6659813467930268 0.9246682561914162 11.186849173496597 -3.287321758354249 0.1500005344419296 -1.6854072112082288 -9.099470529170405 1.3235228293652754 -18.220457868205266 -0.8201822387090366 -6.617883167110154 2.4723166309378857 -14.811695688990826 77.79537001070177 -1.1591212027674012 15.6265478631483 30.577433604898054 -0.7918868865665822 99.63970474727682 3.0650196357454824 0.02573435361676779 -1.314263886024268 4.566197503054116 -0.14991232878759436 -1.62476355539827 -0.008103481346433739 -0.022570752102178557 -56.206787986836844 0.03511244862820319 0.01865332144056989 -56.2471727212953 -38.764943874517364 -0.02178442479593867 0.02508725835329881 0.04441570399755789 -0.04287165493065535 0.0006284170391184903 0.03236963494475632 0.045424074111467726 0.049626135617171954 -36.69578923936179 0.01823479663642934 -0.01162740317571458 0.03878553417866641 0.033916309322345496 -0.020615909699893558 0.027522938472302368 0.013249989692437769 -0.009688597204147569 -19.739934929579682 0.024423490144693732 0.0035304902538223324 -0.0367004318818524 0.0048368614014116995 0.01423653878303501 -0.027602561298979658 -0.04223934665199311 0.008627706573694861 24.01736776937644 0.008331990034062984 -0.03327509392785223 28.820478327373422 -0.03518185955664056 0.011627284227950037 28.891728979244387 0.013183502778125657 0.014311740922916382 5.209978369792832 1.3400032563512612 11.905036874222864 -71.08078607881416 29.107549760177843 -7.57920238099475 -13.23327767124765 -3.630248510771912 -85.41217837041904 -9.284681869344189 -4.392495046373083 3.436278335447134 -0.468983140988568 0.0984110035377869 -8.077606901229899 0.03609476886969828 -0.047187455333673495 44.52915796709721 0.03573255669593456 -0.012614897139484875 44.56819873993178 12.450077003494222 0.028936440233905885 0.015936930857724622 -0.011013021161736457 0.03884268105126696 0.040052348925844555 -0.019698256888052986 -0.013427895761467174 -0.02640061098984372 11.108519359980747 0.01656086329143176 -0.0014563722968824618 -0.0022868333738569825 0.019413211982542405 0.003214048641956029 -0.004226837918208394 0.03028349592722071 0.010407451814335123 4.790999486730868 0.0014111163545603368 0.01475806337429319 -0.04934742455387383 0.03827688038380503 0.015903596842798812 0.010906134294259132 -0.019371946760002763 0.0037049006563376215 -5.608711703899001 -0.0028266446906854933 -0.019499162941932144 -6.69271400251267 -0.004823429043943186 0.025780611328137606 -6.751578034807648 -0.021470271439791588 0.03079806394768044 -0.02478426662689153 0.024647390648737517 0.029381985974608848 8.00032815110396 3.4853563705544044 -19.192872639307332 0.04959303235886728 10.40147436399524 0.011178050471910632 -5.6503721766514 -15.682659904499024 3.2395577889257594 0.03341031460010499 -0.006009252384448167 -0.03908742480745227 -0.026045169189686662 4.743524716447413 -0.04430949304552754 12.501065474645278 -8.212605702837292 6.926026058841581 -0.044061712107448525 46.389594471168834 0.011882729893694726 -4.360907482072604 -14.783621785405062 -3.797919510516343 0.04474495880999996 0.04362776271717046 -0.04183435605581589 -0.03018364373854358 -10.713073246981256 0.047991957617310066 
-0.020264128251444864 0.032015160059298456 -0.013824289407862497 -0.007483127678006067 -0.007719264862672536 -0.028647856156261472 -1.0247258667245096 2.2776810307833273 -1.2076011853956004 -0.9686142970092928 3.6350058109490613 0.38331929853319446 -1.1846447798449569 -1.2164620748961255 -0.4368360571893337 0.2984059752704324 0.06359224234283004 -0.6702242476057377 0.9566359234600249 11.17980905383026 -3.170380200255767 0.20293323881884717 -1.593296816454395 -8.834674921508206 1.260166489867717 -18.099616935053152 -0.7502026020019165 -6.600484076820967 2.50859321125784 -14.669907722159099 77.13579251886435 -0.505709058447153 15.976461456488494 27.206583240109047 -0.8499636799063183 101.11595567500986 2.803995262895693 0.04317169973314093 -1.085998926610578 4.559736200619337 -0.08257774215097646 -1.574286418987851 0.010478410235988889 -0.04467783770925712 -56.245399036650085 0.03491889810389556 -0.010489331329395814 -56.22793288011736 -38.79947721675424 -0.009290604459921033 0.012840835722133438 -0.025566529346345165 -0.03351135674349264 -0.04515060225677626 -0.024149481764287047 0.01382653772657349 0.0423359001781515 -36.73147243652249 -0.04954867988703886 0.003172473274951172 0.016436714649570937 -0.04298653230821749 -0.04917306182479247 0.03870445424969102 -0.02253524152030811 -0.0499297101955332 -19.73243204682287 0.020632662846792462 0.01375994832851785 -0.04927295860822151 -0.03387029286740329 -0.023084292517803584 -0.02606008357281199 -0.009347143029367804 -0.0019894226826816905 24.023910293155847 0.0014464061355160492 0.0181836345436624 28.869124031475494 -0.009563638078774412 0.010432814680429142 28.852263951954153 0.04850872440686072 -0.002800437621233402 5.183865501646041 1.3651629776310847 11.866713159961547 -70.89520175903172 29.86351101746484 -7.832640139508541 -10.211397849063022 -3.8684915116984775 -86.24683739563626 -9.417624259114906 -4.291466978984748 3.2414641781721554 -0.45334022197769797 0.04961314022405876 -8.124012190349923 0.0007633610668127459 -0.011807092714905333 44.52064901500722 0.04297455475475897 0.026083927609662716 44.56757498399037 12.481626837990397 0.045501177735548924 -0.009422358948244116 -0.021615956096046975 -0.020818001236225583 -0.03597146513607801 -0.047133703098690596 0.04474643810544292 -0.011673809847215277 11.105530658046117 -0.022267386632505614 -0.0007029380829218662 0.025654836700237528 -0.0039985724797375 -0.017299976098479452 -0.006062635082020174 0.04433094624702645 0.04814956826814335 4.783790047419641 -0.037822503148403415 -0.03194494741964494 -0.015816926351194013 -0.018904507757687743 -0.009325365377615486 -0.048916130001751934 0.022452911969957207 -0.010598810371407457 -5.647127038629849 -0.0449625258679375 -0.0027058742802092478 -6.751891952077151 0.03596977073682137 0.014972893011366143 -6.729631075871633 0.008471995028397978 5.014560361047153e-06 -0.04169634498184563 0.0013622569718874863 -0.0448310167547561 8.06529330325412 3.4687455692395406 -19.171455452249173 -0.005467658698360149 10.381958520473452 0.019528189337064294 -5.613701434138983 -15.65694389574635 3.162575029209984 -0.02897117885815877 0.011191587122829208 -0.030240490751153946 0.03951922931997993 4.700901751660946 0.008461871932573388 12.473261694129988 -8.237204537663578 6.907146799609241 -0.025586164258140656 46.363928465346426 0.03490648522698755 -4.313135184552619 -14.753332037865798 -3.7895366051390087 -0.02391164850521461 -0.03871324423186699 -0.006872286106084703 -0.010365766145829255 -10.76050466750143 -0.031816910034211054 
0.019808032457093637 0.004542919068323748 -0.023260184029168407 0.032696506421259444 -0.02316049350782743 -0.002316888661651739 -1.2189746514941953 2.1276992176819807 -1.2151404346180825 -0.9062494184625637 3.632371962898985 0.4435547766016209 -1.123649320047798 -1.2299857632384152 -0.3744850524967686 0.2939056152381363 0.054154787298144505 -0.6514304479571523 0.9094756068158057 11.199906077784982 -3.090365316763194 0.14542674978383088 -1.583102552312631 -8.639598301808979 1.2334551865982892 -18.019122427898818 -0.8020307228354832 -6.641780539029549 2.496716569597376 -14.688999289152271 76.8927460020824 -0.24199803148209148 16.836089473568464 25.241428742182382 -0.7915181873070832 101.97584527092782 2.6097417347676615 0.10591433871023098 -0.856681382515716 4.480213228625401 -0.16853001628029424 -1.6010342057984175 0.039646873061662 -0.024231662297917622 -56.26686891894712 0.021798402230573347 -0.024396697180721818 -56.256207041895934 -38.77095027533659 0.032743609483988856 -0.028490222376683878 -0.018359853467165437 0.004872361698640492 0.02323055690127246 -0.02404487979714935 0.007153405969897722 -0.012936434697564872 -36.66001663512959 -0.016467515931166684 0.011445414118075318 -0.04545666728022962 0.01716091046214425 0.016850394876065194 0.009595387675852196 -0.047127662645845655 0.0059206849348926805 -19.712877636533374 0.0010582006454827506 -0.002082856659693881 0.0014406182608383304 0.0373734804371016 -0.008104433877188677 0.019261444337563813 -0.006403180481398466 0.019203839272183377 24.08792240140349 0.03865803618252505 -0.04850132558063757 28.907750436602164 -0.002917164892411605 0.01489176197870663 28.83470320644483 0.010379629866201152 0.004349190064657921 5.268516289400302 1.3708106942052722 11.8316941814869 -70.81877600505663 30.334954752619748 -8.156225562620318 -8.619154528933425 -3.832532694129107 -87.5806952213433 -9.477189217592665 -4.112115303785695 3.073456623375094 -0.5050238738269448 0.08067904165170116 -8.160234240858456 -0.0011407942157512481 -0.030109284236677063 44.529024580517266 0.02928568337442224 -0.02714293277643822 44.61089728933803 12.48698260804348 -0.02470831877840858 -0.013541038120597483 -0.01954055376836168 -0.047382115184216346 -0.00541571613429696 0.020188886680599424 0.010633792466459084 0.047050645198029345 11.057429257545184 -0.020639995082575538 -0.044773974246957955 -0.025555698258737748 0.030048350176174233 -0.017710655467094202 0.034833897766296744 -0.01846021475825641 0.043484466213637316 4.820122474964734 -0.003041104774699177 0.04302466781663148 0.036530251190551664 0.025024430287228047 0.007046421611554754 0.02176286464962407 -0.004917534803683904 -0.0017494143709683163 -5.583109051262084 -0.004179484855736835 0.001134460431944617 -6.695246773206511 0.044308301726378764 -0.00987447642675915 -6.7020424155081075 -0.013193893104206834 -0.011267895808581507 -0.037472640075429456 0.0059090003215556955 0.02545067234329824 8.032781257362245 3.5375060017415145 -19.20358494147015 -0.008994302326924905 10.406961392399806 -0.018607854905245243 -5.639549644448184 -15.651440437902094 3.1545118830509598 -0.01705393296808934 -0.03248920641222555 -0.029954291279285915 0.02974911005121664 4.722787633759385 -0.021417937475234974 12.456395855131484 -8.218019983884458 6.853039688545246 -0.04976600271857893 46.35973216152337 0.015408247345867463 -4.31757802009232 -14.769651307803638 -3.8174354685286214 -0.008882732986669344 -0.02508010508610894 0.04061113939369989 -0.0010136255907208305 -10.734996108144985 0.016360910354266924 
